<?xml version="1.0" standalone="no"?>
<svg version="1.0" xmlns="http://www.w3.org/2000/svg"
 width="512.000000pt" height="512.000000pt" viewBox="0 0 512.000000 512.000000"
 preserveAspectRatio="xMidYMid meet"
  style="background:black;"
  >
<metadata>
Created by potrace 1.16, written by Peter Selinger 2001-2019
</metadata>
<g transform="translate(0.000000,512.000000) scale(0.100000,-0.100000)"
fill="white" stroke="none">
<path d="M1835 3031 c-10 -10 -63 -41 -228 -134 -48 -27 -87 -50 -85 -52 2 -1
79 -46 171 -99 l168 -96 167 96 c92 53 168 97 170 99 3 3 -110 69 -238 138
-30 17 -64 36 -75 44 -23 15 -37 17 -50 4z"/>
<path d="M2520 2808 c-76 -22 -158 -107 -180 -187 -35 -127 28 -269 146 -326
55 -26 150 -31 212 -11 110 37 186 145 185 262 -2 187 -179 315 -363 262z
m183 -124 c42 -28 77 -90 77 -139 0 -36 -30 -104 -56 -127 -27 -24 -88 -48
-121 -48 -44 0 -112 39 -140 81 -61 93 -7 233 101 260 45 11 96 1 139 -27z"/>
<path d="M3194 2804 c-179 -65 -234 -299 -105 -446 157 -179 461 -68 461 169
l0 44 -137 -3 -138 -3 -3 -39 c-2 -21 0 -42 5 -47 5 -5 39 -10 77 -11 37 -1
70 -7 73 -12 11 -16 -66 -74 -107 -81 -104 -18 -200 65 -200 171 0 143 169
223 276 130 l38 -33 38 26 c20 14 37 29 38 33 0 14 -72 77 -108 94 -49 24
-155 28 -208 8z"/>
<path d="M3785 2806 c-73 -34 -114 -115 -95 -186 15 -57 58 -90 152 -117 101
-29 128 -46 128 -78 0 -56 -132 -75 -184 -26 l-24 22 -41 -20 c-47 -24 -51
-39 -18 -69 81 -76 243 -83 322 -14 62 54 68 145 14 206 -29 33 -67 51 -170
80 -63 18 -82 34 -77 68 7 50 107 62 167 19 l31 -22 35 27 c20 15 35 34 33 43
-2 8 -25 29 -52 45 -41 26 -61 31 -120 33 -44 2 -82 -3 -101 -11z"/>
<path d="M1570 2534 c0 -151 3 -195 13 -192 6 2 69 35 139 73 l128 70 0 45 0
45 -135 78 c-74 42 -136 77 -140 77 -3 0 -5 -88 -5 -196z"/>
<path d="M1937 2424 c-41 -22 -31 -43 43 -86 68 -40 98 -46 118 -26 28 28 13
56 -47 92 -65 40 -74 42 -114 20z"/>
</g>
</svg>
